<?xml version="1.0" encoding="UTF-8"?> <svg xmlns="http://www.w3.org/2000/svg" id="Layer_1" data-name="Layer 1" viewBox="0 0 597.03 89.37"><defs><style> .cls-1 { fill: #fff; } </style></defs><path class="cls-1" d="m211.66,0c-11.83,0-21.93,4.27-30.31,12.82-8.38,8.55-12.56,18.95-12.56,31.21v40.02c0,2.33,1.16,3.5,3.47,3.5h10.15c2.31,0,3.47-1.17,3.47-3.5v-10.62c0-2.33,1.13-3.5,3.38-3.5h44.91c2.26,0,3.38,1.17,3.38,3.5v10.62c0,2.33,1.16,3.5,3.47,3.5h10.15c2.31,0,3.47-1.17,3.47-3.5v-40.02c0-12.26-4.19-22.67-12.56-31.21-8.38-8.55-18.52-12.82-30.44-12.82Zm25.9,51.03c0,2.33-1.13,3.5-3.38,3.5h-44.91c-2.26,0-3.38-1.17-3.38-3.5v-6.99c0-7.68,2.51-14.27,7.55-19.75,5.03-5.48,11.11-8.22,18.23-8.22s13.32,2.76,18.35,8.29c5.03,5.53,7.55,12.22,7.55,20.08v6.61ZM151.14,1.68h-10.16c-2.31,0-3.47,1.17-3.47,3.49v21.23c0,2.85-1.09,5.39-3.26,7.64l-34.51,36.34-.13.13c-1.74,1.43-3.47,2.14-5.2,2.14-2.43,0-4.47-.97-6.11-2.91-1.65-1.94-2.47-4.25-2.47-6.93V28.28c0-.23.04-.46.04-.7V5.18c0-2.33-1.16-3.5-3.47-3.5h-10.19c-2.32,0-3.47,1.17-3.47,3.5v22.03c-.19,2.53-1.25,4.81-3.22,6.84l-34.51,36.34-.13.13c-1.73,1.43-3.47,2.14-5.2,2.14-2.43,0-4.47-.97-6.11-2.91-1.65-1.94-2.47-4.25-2.47-6.93V5.18c0-2.33-1.16-3.5-3.47-3.5H3.47C1.16,1.68,0,2.85,0,5.18v58.8c0,6.99,2.5,12.97,7.51,17.94,5.01,4.97,11.09,7.45,18.26,7.45s13.38-2.33,17.61-6.99l25.35-27.25v8.86c0,6.99,2.5,12.97,7.51,17.94,5.01,4.97,11.09,7.45,18.26,7.45s13.38-2.33,17.61-6.99l34.45-37.04c5.35-5.78,8.03-11.7,8.03-17.74V5.18c0-2.33-1.16-3.5-3.47-3.5Zm182.02,0h-55.42c-2.33,0-3.5,1.16-3.5,3.47v8.48c0,2.31,1.17,3.47,3.51,3.47h15.52c2.25,0,3.38,1.13,3.38,3.38v48.17c0,2.34-1.13,3.5-3.38,3.5h-15.52c-2.34,0-3.51,1.12-3.51,3.37v8.55c0,2.33,1.17,3.5,3.5,3.5h55.42c2.33,0,3.5-1.17,3.5-3.5v-8.55c0-2.24-1.17-3.37-3.5-3.37h-16.05c-2.25,0-3.37-1.17-3.37-3.5V20.47c0-2.25,1.12-3.38,3.37-3.38h16.05c2.33,0,3.5-1.15,3.5-3.47V5.15c0-2.31-1.17-3.47-3.5-3.47Zm185.98,0h-34.32c-7.17,0-13.26,2.48-18.26,7.45-5.01,4.97-7.51,10.94-7.51,17.94v35.23c0,6.99,2.51,12.95,7.53,17.87,5.02,4.92,11.12,7.38,18.3,7.38h39.58c2.25,0,3.37-1.17,3.37-3.5v-8.55c0-2.24-1.13-3.37-3.38-3.37h-39.7c-2.43,0-4.47-.97-6.12-2.91-1.65-1.94-2.47-4.25-2.47-6.93v-6.48c0-2.33,1.12-3.5,3.37-3.5h39.58c7.09,0,13.17-2.46,18.23-7.38,5.06-4.92,7.59-10.88,7.59-17.87s-2.53-12.97-7.58-17.94c-5.05-4.96-11.12-7.45-18.2-7.45Zm6.02,32.3c-1.69,1.95-3.7,2.93-6.04,2.93h-39.6c-2.25,0-3.38-1.13-3.38-3.39v-6.52c0-2.78.82-5.13,2.47-7.04,1.64-1.91,3.68-2.87,6.1-2.87h34.41c2.34,0,4.35.96,6.04,2.87,1.69,1.91,2.53,4.26,2.53,7.04s-.84,5.02-2.53,6.98ZM440.74,1.68h-10.16c-2.31,0-3.47,1.17-3.47,3.49v21.23c0,2.85-1.09,5.39-3.26,7.64l-34.51,36.34-.13.13c-1.73,1.43-3.47,2.14-5.2,2.14-2.43,0-4.46-.97-6.11-2.91-1.65-1.94-2.47-4.25-2.47-6.93V5.18c0-2.33-1.16-3.5-3.47-3.5h-10.15c-2.32,0-3.47,1.17-3.47,3.5v58.8c0,6.99,2.5,12.97,7.51,17.94,5.01,4.97,11.09,7.45,18.26,7.45s13.38-2.33,17.61-6.99l34.45-37.04c5.35-5.78,8.03-11.7,8.03-17.74V5.18c0-2.33-1.16-3.5-3.47-3.5Z"></path><g><path class="cls-1" d="m560.68,19.19V4.11h-5.57V0h16.17v4.11h-5.51v15.08h-5.09Z"></path><path class="cls-1" d="m597.03,19.19h-4.72V4.93h-.16l-3.76,14.26h-4.37l-3.55-14.32h-.16v14.32h-4.64V0h7.53l3.1,12.83h.19l3.05-12.83h7.5v19.19Z"></path></g></svg> 